<svg id="Group_28241" data-name="Group 28241" xmlns="http://www.w3.org/2000/svg" width="16.881" height="15.599" viewBox="0 0 16.881 15.599">
  <defs>
    <style>
      .cls-1 {
        fill: #454b53;
      }

      .cls-2 {
        fill: #1ac977;
      }
    </style>
  </defs>
  <g id="Group_28238" data-name="Group 28238" transform="translate(0)">
    <path id="Path_26964" data-name="Path 26964" class="cls-1" d="M2934.568,1108.349a1.778,1.778,0,0,1-1.728-1.52l-1.281-8.034a1.765,1.765,0,0,1,1.426-2.044l12.263-1.955a1.765,1.765,0,0,1,1.99,1.5l.611,3.512a.423.423,0,1,1-.834.145l-.612-3.518a.919.919,0,0,0-1.022-.8l-12.263,1.954a.917.917,0,0,0-.723,1.075l1.28,8.034a.918.918,0,0,0,1.021.8l4.332-.711a.423.423,0,0,1,.137.835l-4.334.711A1.661,1.661,0,0,1,2934.568,1108.349Z" transform="translate(-2931.536 -1094.775)"/>
    <path id="Path_26965" data-name="Path 26965" class="cls-1" d="M2946.008,1109.024a.423.423,0,0,1-.066-.841l12.564-2a.423.423,0,1,1,.134.836l-12.565,2A.408.408,0,0,1,2946.008,1109.024Z" transform="translate(-2943.207 -1104.244)"/>
    <path id="Path_26966" data-name="Path 26966" class="cls-1" d="M2934.471,1118.52a.423.423,0,0,1-.066-.841l14.724-2.347a.423.423,0,1,1,.133.836l-14.724,2.347A.436.436,0,0,1,2934.471,1118.52Z" transform="translate(-2933.623 -1111.846)"/>
    <path id="Path_26967" data-name="Path 26967" class="cls-1" d="M2949.869,1143.877a.423.423,0,0,1-.066-.841l2.622-.418a.423.423,0,0,1,.133.836l-2.622.418A.4.4,0,0,1,2949.869,1143.877Z" transform="translate(-2946.414 -1134.513)"/>
    <path id="Path_26968" data-name="Path 26968" class="cls-2" d="M2988.583,1141.026a.423.423,0,0,1-.3-.124l-2.491-2.491a3.946,3.946,0,1,1,5.581,0l-2.491,2.491A.422.422,0,0,1,2988.583,1141.026Zm0-8.5a3.1,3.1,0,0,0-2.192,5.29l2.192,2.192,2.192-2.192a3.1,3.1,0,0,0-2.192-5.29Z" transform="translate(-2975.647 -1125.427)"/>
    <path id="Path_26969" data-name="Path 26969" class="cls-2" d="M3001.186,1148.888a1.456,1.456,0,1,1,1.457-1.457A1.458,1.458,0,0,1,3001.186,1148.888Zm0-2.066a.61.61,0,1,0,.61.61A.611.611,0,0,0,3001.186,1146.822Z" transform="translate(-2988.183 -1137.306)"/>
  </g>
</svg>
